<svg xmlns="http://www.w3.org/2000/svg" width="700" height="852" viewBox="0 0 700 852" font-family="Helvetica, Arial, sans-serif">
<rect width="700" height="852" fill="#fafafa"/>
<text x="350.0" y="34" text-anchor="middle" font-size="22" font-weight="bold" fill="#222">mutual_exclusion - mutual_exclusion_mlp_trained</text>
<text x="350.0" y="58" text-anchor="middle" font-size="13" fill="#666">NAND(a, b)  |  trained_mlp  |  accuracy 1.00</text>
<line x1="130.0" y1="386.0" x2="350.0" y2="116.0" stroke="#d7301f" stroke-width="2.02" stroke-opacity="0.75"/>
<text x="200.4" y="296.6" text-anchor="middle" font-size="9" fill="#d7301f">-1.37</text>
<line x1="130.0" y1="476.0" x2="350.0" y2="116.0" stroke="#d7301f" stroke-width="2.06" stroke-opacity="0.75"/>
<text x="279.6" y="228.2" text-anchor="middle" font-size="9" fill="#d7301f">-1.40</text>
<line x1="130.0" y1="386.0" x2="350.0" y2="206.0" stroke="#2c7fb8" stroke-width="1.53" stroke-opacity="0.75"/>
<text x="200.4" y="325.4" text-anchor="middle" font-size="9" fill="#2c7fb8">0.89</text>
<line x1="130.0" y1="476.0" x2="350.0" y2="206.0" stroke="#2c7fb8" stroke-width="1.76" stroke-opacity="0.75"/>
<text x="279.6" y="289.4" text-anchor="middle" font-size="9" fill="#2c7fb8">1.11</text>
<line x1="130.0" y1="386.0" x2="350.0" y2="296.0" stroke="#2c7fb8" stroke-width="2.31" stroke-opacity="0.75"/>
<text x="200.4" y="354.2" text-anchor="middle" font-size="9" fill="#2c7fb8">1.65</text>
<line x1="130.0" y1="476.0" x2="350.0" y2="296.0" stroke="#2c7fb8" stroke-width="2.55" stroke-opacity="0.75"/>
<text x="279.6" y="350.6" text-anchor="middle" font-size="9" fill="#2c7fb8">1.87</text>
<line x1="130.0" y1="386.0" x2="350.0" y2="386.0" stroke="#2c7fb8" stroke-width="2.10" stroke-opacity="0.75"/>
<text x="200.4" y="383.0" text-anchor="middle" font-size="9" fill="#2c7fb8">1.44</text>
<line x1="130.0" y1="476.0" x2="350.0" y2="386.0" stroke="#2c7fb8" stroke-width="1.82" stroke-opacity="0.75"/>
<text x="279.6" y="411.8" text-anchor="middle" font-size="9" fill="#2c7fb8">1.17</text>
<line x1="130.0" y1="386.0" x2="350.0" y2="476.0" stroke="#d7301f" stroke-width="1.97" stroke-opacity="0.75"/>
<text x="200.4" y="411.8" text-anchor="middle" font-size="9" fill="#d7301f">-1.32</text>
<line x1="130.0" y1="476.0" x2="350.0" y2="476.0" stroke="#d7301f" stroke-width="1.94" stroke-opacity="0.75"/>
<text x="279.6" y="473.0" text-anchor="middle" font-size="9" fill="#d7301f">-1.28</text>
<line x1="130.0" y1="386.0" x2="350.0" y2="566.0" stroke="#2c7fb8" stroke-width="2.57" stroke-opacity="0.75"/>
<text x="200.4" y="440.6" text-anchor="middle" font-size="9" fill="#2c7fb8">1.90</text>
<line x1="130.0" y1="476.0" x2="350.0" y2="566.0" stroke="#2c7fb8" stroke-width="2.63" stroke-opacity="0.75"/>
<text x="279.6" y="534.2" text-anchor="middle" font-size="9" fill="#2c7fb8">1.95</text>
<line x1="130.0" y1="386.0" x2="350.0" y2="656.0" stroke="#d7301f" stroke-width="1.30" stroke-opacity="0.75"/>
<text x="200.4" y="469.4" text-anchor="middle" font-size="9" fill="#d7301f">-0.67</text>
<line x1="130.0" y1="476.0" x2="350.0" y2="656.0" stroke="#d7301f" stroke-width="1.63" stroke-opacity="0.75"/>
<text x="279.6" y="595.4" text-anchor="middle" font-size="9" fill="#d7301f">-0.99</text>
<line x1="130.0" y1="386.0" x2="350.0" y2="746.0" stroke="#d7301f" stroke-width="1.91" stroke-opacity="0.75"/>
<text x="200.4" y="498.2" text-anchor="middle" font-size="9" fill="#d7301f">-1.26</text>
<line x1="130.0" y1="476.0" x2="350.0" y2="746.0" stroke="#d7301f" stroke-width="1.78" stroke-opacity="0.75"/>
<text x="279.6" y="656.6" text-anchor="middle" font-size="9" fill="#d7301f">-1.13</text>
<line x1="350.0" y1="116.0" x2="570.0" y2="431.0" stroke="#2c7fb8" stroke-width="4.20" stroke-opacity="0.75"/>
<text x="420.4" y="213.8" text-anchor="middle" font-size="9" fill="#2c7fb8">3.46</text>
<line x1="350.0" y1="206.0" x2="570.0" y2="431.0" stroke="#d7301f" stroke-width="3.17" stroke-opacity="0.75"/>
<text x="431.7" y="286.6" text-anchor="middle" font-size="9" fill="#d7301f">-2.47</text>
<line x1="350.0" y1="296.0" x2="570.0" y2="431.0" stroke="#d7301f" stroke-width="4.08" stroke-opacity="0.75"/>
<text x="443.0" y="350.1" text-anchor="middle" font-size="9" fill="#d7301f">-3.35</text>
<line x1="350.0" y1="386.0" x2="570.0" y2="431.0" stroke="#d7301f" stroke-width="3.60" stroke-opacity="0.75"/>
<text x="454.3" y="404.3" text-anchor="middle" font-size="9" fill="#d7301f">-2.88</text>
<line x1="350.0" y1="476.0" x2="570.0" y2="431.0" stroke="#2c7fb8" stroke-width="4.01" stroke-opacity="0.75"/>
<text x="465.7" y="449.3" text-anchor="middle" font-size="9" fill="#2c7fb8">3.28</text>
<line x1="350.0" y1="566.0" x2="570.0" y2="431.0" stroke="#d7301f" stroke-width="3.85" stroke-opacity="0.75"/>
<text x="477.0" y="485.1" text-anchor="middle" font-size="9" fill="#d7301f">-3.12</text>
<line x1="350.0" y1="656.0" x2="570.0" y2="431.0" stroke="#d7301f" stroke-width="1.93" stroke-opacity="0.75"/>
<text x="488.3" y="511.6" text-anchor="middle" font-size="9" fill="#d7301f">-1.28</text>
<line x1="350.0" y1="746.0" x2="570.0" y2="431.0" stroke="#2c7fb8" stroke-width="3.87" stroke-opacity="0.75"/>
<text x="499.6" y="528.8" text-anchor="middle" font-size="9" fill="#2c7fb8">3.14</text>
<circle cx="130.0" cy="386.0" r="26" fill="#e8f4ea" stroke="#333333" stroke-width="1.6"/>
<text x="130.0" y="390.0" text-anchor="middle" font-size="13" fill="#222">a</text>
<circle cx="130.0" cy="476.0" r="26" fill="#e8f4ea" stroke="#333333" stroke-width="1.6"/>
<text x="130.0" y="480.0" text-anchor="middle" font-size="13" fill="#222">b</text>
<text x="130.0" y="82.0" text-anchor="middle" font-size="12" fill="#888">input</text>
<circle cx="350.0" cy="116.0" r="26" fill="#ffffff" stroke="#333333" stroke-width="1.6"/>
<text x="350.0" y="156.0" text-anchor="middle" font-size="10" fill="#555">b=1.90</text>
<circle cx="350.0" cy="206.0" r="26" fill="#ffffff" stroke="#333333" stroke-width="1.6"/>
<text x="350.0" y="246.0" text-anchor="middle" font-size="10" fill="#555">b=-1.28</text>
<circle cx="350.0" cy="296.0" r="26" fill="#ffffff" stroke="#333333" stroke-width="1.6"/>
<text x="350.0" y="336.0" text-anchor="middle" font-size="10" fill="#555">b=-2.56</text>
<circle cx="350.0" cy="386.0" r="26" fill="#ffffff" stroke="#333333" stroke-width="1.6"/>
<text x="350.0" y="426.0" text-anchor="middle" font-size="10" fill="#555">b=-1.84</text>
<circle cx="350.0" cy="476.0" r="26" fill="#ffffff" stroke="#333333" stroke-width="1.6"/>
<text x="350.0" y="516.0" text-anchor="middle" font-size="10" fill="#555">b=1.77</text>
<circle cx="350.0" cy="566.0" r="26" fill="#ffffff" stroke="#333333" stroke-width="1.6"/>
<text x="350.0" y="606.0" text-anchor="middle" font-size="10" fill="#555">b=-2.76</text>
<circle cx="350.0" cy="656.0" r="26" fill="#ffffff" stroke="#333333" stroke-width="1.6"/>
<text x="350.0" y="696.0" text-anchor="middle" font-size="10" fill="#555">b=-1.07</text>
<circle cx="350.0" cy="746.0" r="26" fill="#ffffff" stroke="#333333" stroke-width="1.6"/>
<text x="350.0" y="786.0" text-anchor="middle" font-size="10" fill="#555">b=1.62</text>
<text x="350.0" y="82.0" text-anchor="middle" font-size="12" fill="#888">hidden (tanh)</text>
<circle cx="570.0" cy="431.0" r="26" fill="#fdece8" stroke="#333333" stroke-width="1.6"/>
<text x="570.0" y="435.0" text-anchor="middle" font-size="13" fill="#222">y</text>
<text x="570.0" y="471.0" text-anchor="middle" font-size="10" fill="#555">b=1.16</text>
<text x="570.0" y="82.0" text-anchor="middle" font-size="12" fill="#888">output (sigmoid)</text>
<line x1="130" y1="800" x2="164" y2="800" stroke="#2c7fb8" stroke-width="4"/>
<text x="172" y="804" font-size="12" fill="#555">positive weight</text>
<line x1="300" y1="800" x2="334" y2="800" stroke="#d7301f" stroke-width="4"/>
<text x="342" y="804" font-size="12" fill="#555">negative weight</text>
<text x="490" y="804" font-size="12" fill="#555">thickness &#8733; |weight|</text>
</svg>