<svg xmlns="http://www.w3.org/2000/svg" width="700" height="852" viewBox="0 0 700 852" font-family="Helvetica, Arial, sans-serif">
<rect width="700" height="852" fill="#fafafa"/>
<text x="350.0" y="34" text-anchor="middle" font-size="22" font-weight="bold" fill="#222">staircase - staircase_mlp_trained</text>
<text x="350.0" y="58" text-anchor="middle" font-size="13" fill="#666">
level = 0
for i in range(0, 3):
    if x &gt; level + 3:
        level = level + 2
return level &gt;= 4
  |  trained_mlp  |  accuracy 1.00</text>
<line x1="130.0" y1="431.0" x2="350.0" y2="116.0" stroke="#d7301f" stroke-width="0.91" stroke-opacity="0.75"/>
<text x="240.0" y="270.5" text-anchor="middle" font-size="9" fill="#d7301f">-0.58</text>
<line x1="130.0" y1="431.0" x2="350.0" y2="206.0" stroke="#2c7fb8" stroke-width="0.88" stroke-opacity="0.75"/>
<text x="240.0" y="315.5" text-anchor="middle" font-size="9" fill="#2c7fb8">0.52</text>
<line x1="130.0" y1="431.0" x2="350.0" y2="296.0" stroke="#2c7fb8" stroke-width="0.91" stroke-opacity="0.75"/>
<text x="240.0" y="360.5" text-anchor="middle" font-size="9" fill="#2c7fb8">0.57</text>
<line x1="130.0" y1="431.0" x2="350.0" y2="386.0" stroke="#d7301f" stroke-width="0.84" stroke-opacity="0.75"/>
<text x="240.0" y="405.5" text-anchor="middle" font-size="9" fill="#d7301f">-0.45</text>
<line x1="130.0" y1="431.0" x2="350.0" y2="476.0" stroke="#d7301f" stroke-width="0.78" stroke-opacity="0.75"/>
<text x="240.0" y="450.5" text-anchor="middle" font-size="9" fill="#d7301f">-0.34</text>
<line x1="130.0" y1="431.0" x2="350.0" y2="566.0" stroke="#2c7fb8" stroke-width="0.84" stroke-opacity="0.75"/>
<text x="240.0" y="495.5" text-anchor="middle" font-size="9" fill="#2c7fb8">0.45</text>
<line x1="130.0" y1="431.0" x2="350.0" y2="656.0" stroke="#d7301f" stroke-width="0.98" stroke-opacity="0.75"/>
<text x="240.0" y="540.5" text-anchor="middle" font-size="9" fill="#d7301f">-0.71</text>
<line x1="130.0" y1="431.0" x2="350.0" y2="746.0" stroke="#d7301f" stroke-width="0.85" stroke-opacity="0.75"/>
<text x="240.0" y="585.5" text-anchor="middle" font-size="9" fill="#d7301f">-0.47</text>
<line x1="350.0" y1="116.0" x2="570.0" y2="431.0" stroke="#d7301f" stroke-width="2.78" stroke-opacity="0.75"/>
<text x="420.4" y="213.8" text-anchor="middle" font-size="9" fill="#d7301f">-4.05</text>
<line x1="350.0" y1="206.0" x2="570.0" y2="431.0" stroke="#2c7fb8" stroke-width="2.63" stroke-opacity="0.75"/>
<text x="431.7" y="286.6" text-anchor="middle" font-size="9" fill="#2c7fb8">3.77</text>
<line x1="350.0" y1="296.0" x2="570.0" y2="431.0" stroke="#2c7fb8" stroke-width="4.20" stroke-opacity="0.75"/>
<text x="443.0" y="350.1" text-anchor="middle" font-size="9" fill="#2c7fb8">6.68</text>
<line x1="350.0" y1="386.0" x2="570.0" y2="431.0" stroke="#d7301f" stroke-width="4.15" stroke-opacity="0.75"/>
<text x="454.3" y="404.3" text-anchor="middle" font-size="9" fill="#d7301f">-6.58</text>
<line x1="350.0" y1="476.0" x2="570.0" y2="431.0" stroke="#d7301f" stroke-width="3.67" stroke-opacity="0.75"/>
<text x="465.7" y="449.3" text-anchor="middle" font-size="9" fill="#d7301f">-5.70</text>
<line x1="350.0" y1="566.0" x2="570.0" y2="431.0" stroke="#2c7fb8" stroke-width="2.87" stroke-opacity="0.75"/>
<text x="477.0" y="485.1" text-anchor="middle" font-size="9" fill="#2c7fb8">4.22</text>
<line x1="350.0" y1="656.0" x2="570.0" y2="431.0" stroke="#d7301f" stroke-width="3.52" stroke-opacity="0.75"/>
<text x="488.3" y="511.6" text-anchor="middle" font-size="9" fill="#d7301f">-5.41</text>
<line x1="350.0" y1="746.0" x2="570.0" y2="431.0" stroke="#d7301f" stroke-width="2.61" stroke-opacity="0.75"/>
<text x="499.6" y="528.8" text-anchor="middle" font-size="9" fill="#d7301f">-3.73</text>
<circle cx="130.0" cy="431.0" r="26" fill="#e8f4ea" stroke="#333333" stroke-width="1.6"/>
<text x="130.0" y="435.0" text-anchor="middle" font-size="13" fill="#222">x</text>
<text x="130.0" y="82.0" text-anchor="middle" font-size="12" fill="#888">input</text>
<circle cx="350.0" cy="116.0" r="26" fill="#ffffff" stroke="#333333" stroke-width="1.6"/>
<text x="350.0" y="156.0" text-anchor="middle" font-size="10" fill="#555">b=3.16</text>
<circle cx="350.0" cy="206.0" r="26" fill="#ffffff" stroke="#333333" stroke-width="1.6"/>
<text x="350.0" y="246.0" text-anchor="middle" font-size="10" fill="#555">b=-2.83</text>
<circle cx="350.0" cy="296.0" r="26" fill="#ffffff" stroke="#333333" stroke-width="1.6"/>
<text x="350.0" y="336.0" text-anchor="middle" font-size="10" fill="#555">b=-3.13</text>
<circle cx="350.0" cy="386.0" r="26" fill="#ffffff" stroke="#333333" stroke-width="1.6"/>
<text x="350.0" y="426.0" text-anchor="middle" font-size="10" fill="#555">b=2.46</text>
<circle cx="350.0" cy="476.0" r="26" fill="#ffffff" stroke="#333333" stroke-width="1.6"/>
<text x="350.0" y="516.0" text-anchor="middle" font-size="10" fill="#555">b=1.87</text>
<circle cx="350.0" cy="566.0" r="26" fill="#ffffff" stroke="#333333" stroke-width="1.6"/>
<text x="350.0" y="606.0" text-anchor="middle" font-size="10" fill="#555">b=-2.48</text>
<circle cx="350.0" cy="656.0" r="26" fill="#ffffff" stroke="#333333" stroke-width="1.6"/>
<text x="350.0" y="696.0" text-anchor="middle" font-size="10" fill="#555">b=3.90</text>
<circle cx="350.0" cy="746.0" r="26" fill="#ffffff" stroke="#333333" stroke-width="1.6"/>
<text x="350.0" y="786.0" text-anchor="middle" font-size="10" fill="#555">b=2.58</text>
<text x="350.0" y="82.0" text-anchor="middle" font-size="12" fill="#888">hidden (tanh)</text>
<circle cx="570.0" cy="431.0" r="26" fill="#fdece8" stroke="#333333" stroke-width="1.6"/>
<text x="570.0" y="435.0" text-anchor="middle" font-size="13" fill="#222">y</text>
<text x="570.0" y="471.0" text-anchor="middle" font-size="10" fill="#555">b=-0.55</text>
<text x="570.0" y="82.0" text-anchor="middle" font-size="12" fill="#888">output (sigmoid)</text>
<line x1="130" y1="800" x2="164" y2="800" stroke="#2c7fb8" stroke-width="4"/>
<text x="172" y="804" font-size="12" fill="#555">positive weight</text>
<line x1="300" y1="800" x2="334" y2="800" stroke="#d7301f" stroke-width="4"/>
<text x="342" y="804" font-size="12" fill="#555">negative weight</text>
<text x="490" y="804" font-size="12" fill="#555">thickness &#8733; |weight|</text>
</svg>