<svg xmlns="http://www.w3.org/2000/svg" width="700" height="852" viewBox="0 0 700 852" font-family="Helvetica, Arial, sans-serif">
<rect width="700" height="852" fill="#fafafa"/>
<text x="350.0" y="34" text-anchor="middle" font-size="22" font-weight="bold" fill="#222">three_way_parity - three_way_parity_mlp_trained</text>
<text x="350.0" y="58" text-anchor="middle" font-size="13" fill="#666">XOR(XOR(a, b), c)  |  trained_mlp  |  accuracy 1.00</text>
<line x1="130.0" y1="341.0" x2="350.0" y2="116.0" stroke="#d7301f" stroke-width="3.08" stroke-opacity="0.75"/>
<text x="200.4" y="266.0" text-anchor="middle" font-size="9" fill="#d7301f">-3.61</text>
<line x1="130.0" y1="431.0" x2="350.0" y2="116.0" stroke="#2c7fb8" stroke-width="2.92" stroke-opacity="0.75"/>
<text x="240.0" y="270.5" text-anchor="middle" font-size="9" fill="#2c7fb8">3.38</text>
<line x1="130.0" y1="521.0" x2="350.0" y2="116.0" stroke="#2c7fb8" stroke-width="3.58" stroke-opacity="0.75"/>
<text x="279.6" y="242.6" text-anchor="middle" font-size="9" fill="#2c7fb8">4.34</text>
<line x1="130.0" y1="341.0" x2="350.0" y2="206.0" stroke="#2c7fb8" stroke-width="1.54" stroke-opacity="0.75"/>
<text x="200.4" y="294.8" text-anchor="middle" font-size="9" fill="#2c7fb8">1.37</text>
<line x1="130.0" y1="431.0" x2="350.0" y2="206.0" stroke="#2c7fb8" stroke-width="1.22" stroke-opacity="0.75"/>
<text x="240.0" y="315.5" text-anchor="middle" font-size="9" fill="#2c7fb8">0.90</text>
<line x1="130.0" y1="521.0" x2="350.0" y2="206.0" stroke="#2c7fb8" stroke-width="1.69" stroke-opacity="0.75"/>
<text x="279.6" y="303.8" text-anchor="middle" font-size="9" fill="#2c7fb8">1.59</text>
<line x1="130.0" y1="341.0" x2="350.0" y2="296.0" stroke="#d7301f" stroke-width="2.77" stroke-opacity="0.75"/>
<text x="200.4" y="323.6" text-anchor="middle" font-size="9" fill="#d7301f">-3.17</text>
<line x1="130.0" y1="431.0" x2="350.0" y2="296.0" stroke="#d7301f" stroke-width="2.77" stroke-opacity="0.75"/>
<text x="240.0" y="360.5" text-anchor="middle" font-size="9" fill="#d7301f">-3.16</text>
<line x1="130.0" y1="521.0" x2="350.0" y2="296.0" stroke="#2c7fb8" stroke-width="2.90" stroke-opacity="0.75"/>
<text x="279.6" y="365.0" text-anchor="middle" font-size="9" fill="#2c7fb8">3.35</text>
<line x1="130.0" y1="341.0" x2="350.0" y2="386.0" stroke="#2c7fb8" stroke-width="1.69" stroke-opacity="0.75"/>
<text x="200.4" y="352.4" text-anchor="middle" font-size="9" fill="#2c7fb8">1.59</text>
<line x1="130.0" y1="431.0" x2="350.0" y2="386.0" stroke="#2c7fb8" stroke-width="2.43" stroke-opacity="0.75"/>
<text x="240.0" y="405.5" text-anchor="middle" font-size="9" fill="#2c7fb8">2.67</text>
<line x1="130.0" y1="521.0" x2="350.0" y2="386.0" stroke="#2c7fb8" stroke-width="1.77" stroke-opacity="0.75"/>
<text x="279.6" y="426.2" text-anchor="middle" font-size="9" fill="#2c7fb8">1.70</text>
<line x1="130.0" y1="341.0" x2="350.0" y2="476.0" stroke="#2c7fb8" stroke-width="1.63" stroke-opacity="0.75"/>
<text x="200.4" y="381.2" text-anchor="middle" font-size="9" fill="#2c7fb8">1.50</text>
<line x1="130.0" y1="431.0" x2="350.0" y2="476.0" stroke="#2c7fb8" stroke-width="2.27" stroke-opacity="0.75"/>
<text x="240.0" y="450.5" text-anchor="middle" font-size="9" fill="#2c7fb8">2.43</text>
<line x1="130.0" y1="521.0" x2="350.0" y2="476.0" stroke="#2c7fb8" stroke-width="1.69" stroke-opacity="0.75"/>
<text x="279.6" y="487.4" text-anchor="middle" font-size="9" fill="#2c7fb8">1.59</text>
<line x1="130.0" y1="341.0" x2="350.0" y2="566.0" stroke="#2c7fb8" stroke-width="2.89" stroke-opacity="0.75"/>
<text x="200.4" y="410.0" text-anchor="middle" font-size="9" fill="#2c7fb8">3.34</text>
<line x1="130.0" y1="431.0" x2="350.0" y2="566.0" stroke="#2c7fb8" stroke-width="2.71" stroke-opacity="0.75"/>
<text x="240.0" y="495.5" text-anchor="middle" font-size="9" fill="#2c7fb8">3.07</text>
<line x1="130.0" y1="521.0" x2="350.0" y2="566.0" stroke="#d7301f" stroke-width="2.93" stroke-opacity="0.75"/>
<text x="279.6" y="548.6" text-anchor="middle" font-size="9" fill="#d7301f">-3.39</text>
<line x1="130.0" y1="341.0" x2="350.0" y2="656.0" stroke="#d7301f" stroke-width="2.47" stroke-opacity="0.75"/>
<text x="200.4" y="438.8" text-anchor="middle" font-size="9" fill="#d7301f">-2.73</text>
<line x1="130.0" y1="431.0" x2="350.0" y2="656.0" stroke="#2c7fb8" stroke-width="2.69" stroke-opacity="0.75"/>
<text x="240.0" y="540.5" text-anchor="middle" font-size="9" fill="#2c7fb8">3.05</text>
<line x1="130.0" y1="521.0" x2="350.0" y2="656.0" stroke="#d7301f" stroke-width="2.54" stroke-opacity="0.75"/>
<text x="279.6" y="609.8" text-anchor="middle" font-size="9" fill="#d7301f">-2.82</text>
<line x1="130.0" y1="341.0" x2="350.0" y2="746.0" stroke="#2c7fb8" stroke-width="2.66" stroke-opacity="0.75"/>
<text x="200.4" y="467.6" text-anchor="middle" font-size="9" fill="#2c7fb8">3.00</text>
<line x1="130.0" y1="431.0" x2="350.0" y2="746.0" stroke="#d7301f" stroke-width="2.46" stroke-opacity="0.75"/>
<text x="240.0" y="585.5" text-anchor="middle" font-size="9" fill="#d7301f">-2.71</text>
<line x1="130.0" y1="521.0" x2="350.0" y2="746.0" stroke="#d7301f" stroke-width="2.79" stroke-opacity="0.75"/>
<text x="279.6" y="671.0" text-anchor="middle" font-size="9" fill="#d7301f">-3.19</text>
<line x1="350.0" y1="116.0" x2="570.0" y2="431.0" stroke="#2c7fb8" stroke-width="3.75" stroke-opacity="0.75"/>
<text x="420.4" y="213.8" text-anchor="middle" font-size="9" fill="#2c7fb8">4.58</text>
<line x1="350.0" y1="206.0" x2="570.0" y2="431.0" stroke="#2c7fb8" stroke-width="0.92" stroke-opacity="0.75"/>
<text x="431.7" y="286.6" text-anchor="middle" font-size="9" fill="#2c7fb8">0.46</text>
<line x1="350.0" y1="296.0" x2="570.0" y2="431.0" stroke="#d7301f" stroke-width="3.94" stroke-opacity="0.75"/>
<text x="443.0" y="350.1" text-anchor="middle" font-size="9" fill="#d7301f">-4.86</text>
<line x1="350.0" y1="386.0" x2="570.0" y2="431.0" stroke="#d7301f" stroke-width="3.90" stroke-opacity="0.75"/>
<text x="454.3" y="404.3" text-anchor="middle" font-size="9" fill="#d7301f">-4.80</text>
<line x1="350.0" y1="476.0" x2="570.0" y2="431.0" stroke="#d7301f" stroke-width="3.50" stroke-opacity="0.75"/>
<text x="465.7" y="449.3" text-anchor="middle" font-size="9" fill="#d7301f">-4.23</text>
<line x1="350.0" y1="566.0" x2="570.0" y2="431.0" stroke="#2c7fb8" stroke-width="3.42" stroke-opacity="0.75"/>
<text x="477.0" y="485.1" text-anchor="middle" font-size="9" fill="#2c7fb8">4.11</text>
<line x1="350.0" y1="656.0" x2="570.0" y2="431.0" stroke="#d7301f" stroke-width="4.20" stroke-opacity="0.75"/>
<text x="488.3" y="511.6" text-anchor="middle" font-size="9" fill="#d7301f">-5.24</text>
<line x1="350.0" y1="746.0" x2="570.0" y2="431.0" stroke="#d7301f" stroke-width="3.65" stroke-opacity="0.75"/>
<text x="499.6" y="528.8" text-anchor="middle" font-size="9" fill="#d7301f">-4.44</text>
<circle cx="130.0" cy="341.0" r="26" fill="#e8f4ea" stroke="#333333" stroke-width="1.6"/>
<text x="130.0" y="345.0" text-anchor="middle" font-size="13" fill="#222">a</text>
<circle cx="130.0" cy="431.0" r="26" fill="#e8f4ea" stroke="#333333" stroke-width="1.6"/>
<text x="130.0" y="435.0" text-anchor="middle" font-size="13" fill="#222">b</text>
<circle cx="130.0" cy="521.0" r="26" fill="#e8f4ea" stroke="#333333" stroke-width="1.6"/>
<text x="130.0" y="525.0" text-anchor="middle" font-size="13" fill="#222">c</text>
<text x="130.0" y="82.0" text-anchor="middle" font-size="12" fill="#888">input</text>
<circle cx="350.0" cy="116.0" r="26" fill="#ffffff" stroke="#333333" stroke-width="1.6"/>
<text x="350.0" y="156.0" text-anchor="middle" font-size="10" fill="#555">b=-1.99</text>
<circle cx="350.0" cy="206.0" r="26" fill="#ffffff" stroke="#333333" stroke-width="1.6"/>
<text x="350.0" y="246.0" text-anchor="middle" font-size="10" fill="#555">b=0.58</text>
<circle cx="350.0" cy="296.0" r="26" fill="#ffffff" stroke="#333333" stroke-width="1.6"/>
<text x="350.0" y="336.0" text-anchor="middle" font-size="10" fill="#555">b=1.50</text>
<circle cx="350.0" cy="386.0" r="26" fill="#ffffff" stroke="#333333" stroke-width="1.6"/>
<text x="350.0" y="426.0" text-anchor="middle" font-size="10" fill="#555">b=-2.91</text>
<circle cx="350.0" cy="476.0" r="26" fill="#ffffff" stroke="#333333" stroke-width="1.6"/>
<text x="350.0" y="516.0" text-anchor="middle" font-size="10" fill="#555">b=-2.67</text>
<circle cx="350.0" cy="566.0" r="26" fill="#ffffff" stroke="#333333" stroke-width="1.6"/>
<text x="350.0" y="606.0" text-anchor="middle" font-size="10" fill="#555">b=-1.50</text>
<circle cx="350.0" cy="656.0" r="26" fill="#ffffff" stroke="#333333" stroke-width="1.6"/>
<text x="350.0" y="696.0" text-anchor="middle" font-size="10" fill="#555">b=1.24</text>
<circle cx="350.0" cy="746.0" r="26" fill="#ffffff" stroke="#333333" stroke-width="1.6"/>
<text x="350.0" y="786.0" text-anchor="middle" font-size="10" fill="#555">b=1.40</text>
<text x="350.0" y="82.0" text-anchor="middle" font-size="12" fill="#888">hidden (tanh)</text>
<circle cx="570.0" cy="431.0" r="26" fill="#fdece8" stroke="#333333" stroke-width="1.6"/>
<text x="570.0" y="435.0" text-anchor="middle" font-size="13" fill="#222">y</text>
<text x="570.0" y="471.0" text-anchor="middle" font-size="10" fill="#555">b=-0.25</text>
<text x="570.0" y="82.0" text-anchor="middle" font-size="12" fill="#888">output (sigmoid)</text>
<line x1="130" y1="800" x2="164" y2="800" stroke="#2c7fb8" stroke-width="4"/>
<text x="172" y="804" font-size="12" fill="#555">positive weight</text>
<line x1="300" y1="800" x2="334" y2="800" stroke="#d7301f" stroke-width="4"/>
<text x="342" y="804" font-size="12" fill="#555">negative weight</text>
<text x="490" y="804" font-size="12" fill="#555">thickness &#8733; |weight|</text>
</svg>