<svg xmlns="http://www.w3.org/2000/svg" width="700" height="852" viewBox="0 0 700 852" font-family="Helvetica, Arial, sans-serif">
<rect width="700" height="852" fill="#fafafa"/>
<text x="350.0" y="34" text-anchor="middle" font-size="22" font-weight="bold" fill="#222">nested_for_pairs - nested_for_pairs_mlp_trained</text>
<text x="350.0" y="58" text-anchor="middle" font-size="13" fill="#666">
        count = 0
        for i in range(3):
            for j in range(3):
                if x == i + j:
                    count = count + 1
        return count &gt;= 2
          |  trained_mlp  |  accuracy 1.00</text>
<line x1="130.0" y1="431.0" x2="350.0" y2="116.0" stroke="#d7301f" stroke-width="0.92" stroke-opacity="0.75"/>
<text x="240.0" y="270.5" text-anchor="middle" font-size="9" fill="#d7301f">-1.33</text>
<line x1="130.0" y1="431.0" x2="350.0" y2="206.0" stroke="#d7301f" stroke-width="0.60" stroke-opacity="0.75"/>
<text x="240.0" y="315.5" text-anchor="middle" font-size="9" fill="#d7301f">-0.01</text>
<line x1="130.0" y1="431.0" x2="350.0" y2="296.0" stroke="#d7301f" stroke-width="0.61" stroke-opacity="0.75"/>
<text x="240.0" y="360.5" text-anchor="middle" font-size="9" fill="#d7301f">-0.05</text>
<line x1="130.0" y1="431.0" x2="350.0" y2="386.0" stroke="#d7301f" stroke-width="0.96" stroke-opacity="0.75"/>
<text x="240.0" y="405.5" text-anchor="middle" font-size="9" fill="#d7301f">-1.49</text>
<line x1="130.0" y1="431.0" x2="350.0" y2="476.0" stroke="#2c7fb8" stroke-width="0.60" stroke-opacity="0.75"/>
<text x="240.0" y="450.5" text-anchor="middle" font-size="9" fill="#2c7fb8">0.02</text>
<line x1="130.0" y1="431.0" x2="350.0" y2="566.0" stroke="#2c7fb8" stroke-width="0.60" stroke-opacity="0.75"/>
<text x="240.0" y="495.5" text-anchor="middle" font-size="9" fill="#2c7fb8">0.02</text>
<line x1="130.0" y1="431.0" x2="350.0" y2="656.0" stroke="#d7301f" stroke-width="0.60" stroke-opacity="0.75"/>
<text x="240.0" y="540.5" text-anchor="middle" font-size="9" fill="#d7301f">-0.00</text>
<line x1="130.0" y1="431.0" x2="350.0" y2="746.0" stroke="#d7301f" stroke-width="0.93" stroke-opacity="0.75"/>
<text x="240.0" y="585.5" text-anchor="middle" font-size="9" fill="#d7301f">-1.36</text>
<line x1="350.0" y1="116.0" x2="570.0" y2="431.0" stroke="#2c7fb8" stroke-width="2.48" stroke-opacity="0.75"/>
<text x="420.4" y="213.8" text-anchor="middle" font-size="9" fill="#2c7fb8">7.76</text>
<line x1="350.0" y1="206.0" x2="570.0" y2="431.0" stroke="#d7301f" stroke-width="0.77" stroke-opacity="0.75"/>
<text x="431.7" y="286.6" text-anchor="middle" font-size="9" fill="#d7301f">-0.72</text>
<line x1="350.0" y1="296.0" x2="570.0" y2="431.0" stroke="#d7301f" stroke-width="0.75" stroke-opacity="0.75"/>
<text x="443.0" y="350.1" text-anchor="middle" font-size="9" fill="#d7301f">-0.60</text>
<line x1="350.0" y1="386.0" x2="570.0" y2="431.0" stroke="#d7301f" stroke-width="4.20" stroke-opacity="0.75"/>
<text x="454.3" y="404.3" text-anchor="middle" font-size="9" fill="#d7301f">-14.90</text>
<line x1="350.0" y1="476.0" x2="570.0" y2="431.0" stroke="#2c7fb8" stroke-width="2.04" stroke-opacity="0.75"/>
<text x="465.7" y="449.3" text-anchor="middle" font-size="9" fill="#2c7fb8">5.98</text>
<line x1="350.0" y1="566.0" x2="570.0" y2="431.0" stroke="#2c7fb8" stroke-width="1.84" stroke-opacity="0.75"/>
<text x="477.0" y="485.1" text-anchor="middle" font-size="9" fill="#2c7fb8">5.12</text>
<line x1="350.0" y1="656.0" x2="570.0" y2="431.0" stroke="#2c7fb8" stroke-width="1.02" stroke-opacity="0.75"/>
<text x="488.3" y="511.6" text-anchor="middle" font-size="9" fill="#2c7fb8">1.73</text>
<line x1="350.0" y1="746.0" x2="570.0" y2="431.0" stroke="#2c7fb8" stroke-width="2.55" stroke-opacity="0.75"/>
<text x="499.6" y="528.8" text-anchor="middle" font-size="9" fill="#2c7fb8">8.08</text>
<circle cx="130.0" cy="431.0" r="26" fill="#e8f4ea" stroke="#333333" stroke-width="1.6"/>
<text x="130.0" y="435.0" text-anchor="middle" font-size="13" fill="#222">x</text>
<text x="130.0" y="82.0" text-anchor="middle" font-size="12" fill="#888">input</text>
<circle cx="350.0" cy="116.0" r="26" fill="#ffffff" stroke="#333333" stroke-width="1.6"/>
<text x="350.0" y="156.0" text-anchor="middle" font-size="10" fill="#555">b=4.65</text>
<circle cx="350.0" cy="206.0" r="26" fill="#ffffff" stroke="#333333" stroke-width="1.6"/>
<text x="350.0" y="246.0" text-anchor="middle" font-size="10" fill="#555">b=0.70</text>
<circle cx="350.0" cy="296.0" r="26" fill="#ffffff" stroke="#333333" stroke-width="1.6"/>
<text x="350.0" y="336.0" text-anchor="middle" font-size="10" fill="#555">b=1.07</text>
<circle cx="350.0" cy="386.0" r="26" fill="#ffffff" stroke="#333333" stroke-width="1.6"/>
<text x="350.0" y="426.0" text-anchor="middle" font-size="10" fill="#555">b=0.83</text>
<circle cx="350.0" cy="476.0" r="26" fill="#ffffff" stroke="#333333" stroke-width="1.6"/>
<text x="350.0" y="516.0" text-anchor="middle" font-size="10" fill="#555">b=-1.91</text>
<circle cx="350.0" cy="566.0" r="26" fill="#ffffff" stroke="#333333" stroke-width="1.6"/>
<text x="350.0" y="606.0" text-anchor="middle" font-size="10" fill="#555">b=-1.90</text>
<circle cx="350.0" cy="656.0" r="26" fill="#ffffff" stroke="#333333" stroke-width="1.6"/>
<text x="350.0" y="696.0" text-anchor="middle" font-size="10" fill="#555">b=-1.46</text>
<circle cx="350.0" cy="746.0" r="26" fill="#ffffff" stroke="#333333" stroke-width="1.6"/>
<text x="350.0" y="786.0" text-anchor="middle" font-size="10" fill="#555">b=4.74</text>
<text x="350.0" y="82.0" text-anchor="middle" font-size="12" fill="#888">hidden (tanh)</text>
<circle cx="570.0" cy="431.0" r="26" fill="#fdece8" stroke="#333333" stroke-width="1.6"/>
<text x="570.0" y="435.0" text-anchor="middle" font-size="13" fill="#222">y</text>
<text x="570.0" y="471.0" text-anchor="middle" font-size="10" fill="#555">b=-1.86</text>
<text x="570.0" y="82.0" text-anchor="middle" font-size="12" fill="#888">output (sigmoid)</text>
<line x1="130" y1="800" x2="164" y2="800" stroke="#2c7fb8" stroke-width="4"/>
<text x="172" y="804" font-size="12" fill="#555">positive weight</text>
<line x1="300" y1="800" x2="334" y2="800" stroke="#d7301f" stroke-width="4"/>
<text x="342" y="804" font-size="12" fill="#555">negative weight</text>
<text x="490" y="804" font-size="12" fill="#555">thickness &#8733; |weight|</text>
</svg>