<svg xmlns="http://www.w3.org/2000/svg" width="700" height="852" viewBox="0 0 700 852" font-family="Helvetica, Arial, sans-serif">
<rect width="700" height="852" fill="#fafafa"/>
<text x="350.0" y="34" text-anchor="middle" font-size="22" font-weight="bold" fill="#222">COMPARATOR_1BIT - comparator_1bit_mlp_trained</text>
<text x="350.0" y="58" text-anchor="middle" font-size="13" fill="#666">trained_mlp  |  accuracy 1.00</text>
<line x1="130.0" y1="386.0" x2="350.0" y2="116.0" stroke="#2c7fb8" stroke-width="2.40" stroke-opacity="0.75"/>
<text x="200.4" y="296.6" text-anchor="middle" font-size="9" fill="#2c7fb8">2.91</text>
<line x1="130.0" y1="476.0" x2="350.0" y2="116.0" stroke="#d7301f" stroke-width="2.68" stroke-opacity="0.75"/>
<text x="279.6" y="228.2" text-anchor="middle" font-size="9" fill="#d7301f">-3.36</text>
<line x1="130.0" y1="386.0" x2="350.0" y2="206.0" stroke="#d7301f" stroke-width="2.52" stroke-opacity="0.75"/>
<text x="200.4" y="325.4" text-anchor="middle" font-size="9" fill="#d7301f">-3.10</text>
<line x1="130.0" y1="476.0" x2="350.0" y2="206.0" stroke="#2c7fb8" stroke-width="2.56" stroke-opacity="0.75"/>
<text x="279.6" y="289.4" text-anchor="middle" font-size="9" fill="#2c7fb8">3.18</text>
<line x1="130.0" y1="386.0" x2="350.0" y2="296.0" stroke="#2c7fb8" stroke-width="3.02" stroke-opacity="0.75"/>
<text x="200.4" y="354.2" text-anchor="middle" font-size="9" fill="#2c7fb8">3.91</text>
<line x1="130.0" y1="476.0" x2="350.0" y2="296.0" stroke="#d7301f" stroke-width="2.41" stroke-opacity="0.75"/>
<text x="279.6" y="350.6" text-anchor="middle" font-size="9" fill="#d7301f">-2.93</text>
<line x1="130.0" y1="386.0" x2="350.0" y2="386.0" stroke="#d7301f" stroke-width="2.49" stroke-opacity="0.75"/>
<text x="200.4" y="383.0" text-anchor="middle" font-size="9" fill="#d7301f">-3.06</text>
<line x1="130.0" y1="476.0" x2="350.0" y2="386.0" stroke="#2c7fb8" stroke-width="2.53" stroke-opacity="0.75"/>
<text x="279.6" y="411.8" text-anchor="middle" font-size="9" fill="#2c7fb8">3.12</text>
<line x1="130.0" y1="386.0" x2="350.0" y2="476.0" stroke="#d7301f" stroke-width="2.52" stroke-opacity="0.75"/>
<text x="200.4" y="411.8" text-anchor="middle" font-size="9" fill="#d7301f">-3.10</text>
<line x1="130.0" y1="476.0" x2="350.0" y2="476.0" stroke="#2c7fb8" stroke-width="2.49" stroke-opacity="0.75"/>
<text x="279.6" y="473.0" text-anchor="middle" font-size="9" fill="#2c7fb8">3.06</text>
<line x1="130.0" y1="386.0" x2="350.0" y2="566.0" stroke="#2c7fb8" stroke-width="1.54" stroke-opacity="0.75"/>
<text x="200.4" y="440.6" text-anchor="middle" font-size="9" fill="#2c7fb8">1.52</text>
<line x1="130.0" y1="476.0" x2="350.0" y2="566.0" stroke="#2c7fb8" stroke-width="1.22" stroke-opacity="0.75"/>
<text x="279.6" y="534.2" text-anchor="middle" font-size="9" fill="#2c7fb8">1.01</text>
<line x1="130.0" y1="386.0" x2="350.0" y2="656.0" stroke="#2c7fb8" stroke-width="2.58" stroke-opacity="0.75"/>
<text x="200.4" y="469.4" text-anchor="middle" font-size="9" fill="#2c7fb8">3.21</text>
<line x1="130.0" y1="476.0" x2="350.0" y2="656.0" stroke="#d7301f" stroke-width="2.80" stroke-opacity="0.75"/>
<text x="279.6" y="595.4" text-anchor="middle" font-size="9" fill="#d7301f">-3.56</text>
<line x1="130.0" y1="386.0" x2="350.0" y2="746.0" stroke="#2c7fb8" stroke-width="1.42" stroke-opacity="0.75"/>
<text x="200.4" y="498.2" text-anchor="middle" font-size="9" fill="#2c7fb8">1.32</text>
<line x1="130.0" y1="476.0" x2="350.0" y2="746.0" stroke="#2c7fb8" stroke-width="0.61" stroke-opacity="0.75"/>
<text x="279.6" y="656.6" text-anchor="middle" font-size="9" fill="#2c7fb8">0.01</text>
<line x1="350.0" y1="116.0" x2="570.0" y2="341.0" stroke="#2c7fb8" stroke-width="2.89" stroke-opacity="0.75"/>
<text x="420.4" y="185.0" text-anchor="middle" font-size="9" fill="#2c7fb8">3.70</text>
<line x1="350.0" y1="206.0" x2="570.0" y2="341.0" stroke="#d7301f" stroke-width="2.71" stroke-opacity="0.75"/>
<text x="431.7" y="253.1" text-anchor="middle" font-size="9" fill="#d7301f">-3.41</text>
<line x1="350.0" y1="296.0" x2="570.0" y2="341.0" stroke="#2c7fb8" stroke-width="0.67" stroke-opacity="0.75"/>
<text x="443.0" y="312.0" text-anchor="middle" font-size="9" fill="#2c7fb8">0.12</text>
<line x1="350.0" y1="386.0" x2="570.0" y2="341.0" stroke="#d7301f" stroke-width="1.26" stroke-opacity="0.75"/>
<text x="454.3" y="361.7" text-anchor="middle" font-size="9" fill="#d7301f">-1.07</text>
<line x1="350.0" y1="476.0" x2="570.0" y2="341.0" stroke="#d7301f" stroke-width="1.21" stroke-opacity="0.75"/>
<text x="465.7" y="402.0" text-anchor="middle" font-size="9" fill="#d7301f">-0.99</text>
<line x1="350.0" y1="566.0" x2="570.0" y2="341.0" stroke="#2c7fb8" stroke-width="0.62" stroke-opacity="0.75"/>
<text x="477.0" y="433.1" text-anchor="middle" font-size="9" fill="#2c7fb8">0.03</text>
<line x1="350.0" y1="656.0" x2="570.0" y2="341.0" stroke="#2c7fb8" stroke-width="3.69" stroke-opacity="0.75"/>
<text x="488.3" y="455.0" text-anchor="middle" font-size="9" fill="#2c7fb8">5.01</text>
<line x1="350.0" y1="746.0" x2="570.0" y2="341.0" stroke="#d7301f" stroke-width="1.35" stroke-opacity="0.75"/>
<text x="499.6" y="467.6" text-anchor="middle" font-size="9" fill="#d7301f">-1.22</text>
<line x1="350.0" y1="116.0" x2="570.0" y2="431.0" stroke="#d7301f" stroke-width="2.95" stroke-opacity="0.75"/>
<text x="420.4" y="213.8" text-anchor="middle" font-size="9" fill="#d7301f">-3.80</text>
<line x1="350.0" y1="206.0" x2="570.0" y2="431.0" stroke="#2c7fb8" stroke-width="2.79" stroke-opacity="0.75"/>
<text x="431.7" y="286.6" text-anchor="middle" font-size="9" fill="#2c7fb8">3.55</text>
<line x1="350.0" y1="296.0" x2="570.0" y2="431.0" stroke="#2c7fb8" stroke-width="2.71" stroke-opacity="0.75"/>
<text x="443.0" y="350.1" text-anchor="middle" font-size="9" fill="#2c7fb8">3.41</text>
<line x1="350.0" y1="386.0" x2="570.0" y2="431.0" stroke="#d7301f" stroke-width="3.34" stroke-opacity="0.75"/>
<text x="454.3" y="404.3" text-anchor="middle" font-size="9" fill="#d7301f">-4.44</text>
<line x1="350.0" y1="476.0" x2="570.0" y2="431.0" stroke="#d7301f" stroke-width="3.48" stroke-opacity="0.75"/>
<text x="465.7" y="449.3" text-anchor="middle" font-size="9" fill="#d7301f">-4.67</text>
<line x1="350.0" y1="566.0" x2="570.0" y2="431.0" stroke="#d7301f" stroke-width="4.20" stroke-opacity="0.75"/>
<text x="477.0" y="485.1" text-anchor="middle" font-size="9" fill="#d7301f">-5.83</text>
<line x1="350.0" y1="656.0" x2="570.0" y2="431.0" stroke="#d7301f" stroke-width="3.55" stroke-opacity="0.75"/>
<text x="488.3" y="511.6" text-anchor="middle" font-size="9" fill="#d7301f">-4.78</text>
<line x1="350.0" y1="746.0" x2="570.0" y2="431.0" stroke="#d7301f" stroke-width="2.51" stroke-opacity="0.75"/>
<text x="499.6" y="528.8" text-anchor="middle" font-size="9" fill="#d7301f">-3.09</text>
<line x1="350.0" y1="116.0" x2="570.0" y2="521.0" stroke="#d7301f" stroke-width="1.37" stroke-opacity="0.75"/>
<text x="420.4" y="242.6" text-anchor="middle" font-size="9" fill="#d7301f">-1.25</text>
<line x1="350.0" y1="206.0" x2="570.0" y2="521.0" stroke="#2c7fb8" stroke-width="1.52" stroke-opacity="0.75"/>
<text x="431.7" y="320.0" text-anchor="middle" font-size="9" fill="#2c7fb8">1.49</text>
<line x1="350.0" y1="296.0" x2="570.0" y2="521.0" stroke="#d7301f" stroke-width="3.01" stroke-opacity="0.75"/>
<text x="443.0" y="388.1" text-anchor="middle" font-size="9" fill="#d7301f">-3.89</text>
<line x1="350.0" y1="386.0" x2="570.0" y2="521.0" stroke="#2c7fb8" stroke-width="3.09" stroke-opacity="0.75"/>
<text x="454.3" y="447.0" text-anchor="middle" font-size="9" fill="#2c7fb8">4.02</text>
<line x1="350.0" y1="476.0" x2="570.0" y2="521.0" stroke="#2c7fb8" stroke-width="3.18" stroke-opacity="0.75"/>
<text x="465.7" y="496.7" text-anchor="middle" font-size="9" fill="#2c7fb8">4.18</text>
<line x1="350.0" y1="566.0" x2="570.0" y2="521.0" stroke="#d7301f" stroke-width="1.32" stroke-opacity="0.75"/>
<text x="477.0" y="537.0" text-anchor="middle" font-size="9" fill="#d7301f">-1.16</text>
<line x1="350.0" y1="656.0" x2="570.0" y2="521.0" stroke="#d7301f" stroke-width="1.04" stroke-opacity="0.75"/>
<text x="488.3" y="568.1" text-anchor="middle" font-size="9" fill="#d7301f">-0.71</text>
<line x1="350.0" y1="746.0" x2="570.0" y2="521.0" stroke="#d7301f" stroke-width="1.75" stroke-opacity="0.75"/>
<text x="499.6" y="590.0" text-anchor="middle" font-size="9" fill="#d7301f">-1.86</text>
<circle cx="130.0" cy="386.0" r="26" fill="#e8f4ea" stroke="#333333" stroke-width="1.6"/>
<text x="130.0" y="390.0" text-anchor="middle" font-size="13" fill="#222">x1</text>
<circle cx="130.0" cy="476.0" r="26" fill="#e8f4ea" stroke="#333333" stroke-width="1.6"/>
<text x="130.0" y="480.0" text-anchor="middle" font-size="13" fill="#222">x2</text>
<text x="130.0" y="82.0" text-anchor="middle" font-size="12" fill="#888">input</text>
<circle cx="350.0" cy="116.0" r="26" fill="#ffffff" stroke="#333333" stroke-width="1.6"/>
<text x="350.0" y="156.0" text-anchor="middle" font-size="10" fill="#555">b=-1.23</text>
<circle cx="350.0" cy="206.0" r="26" fill="#ffffff" stroke="#333333" stroke-width="1.6"/>
<text x="350.0" y="246.0" text-anchor="middle" font-size="10" fill="#555">b=1.44</text>
<circle cx="350.0" cy="296.0" r="26" fill="#ffffff" stroke="#333333" stroke-width="1.6"/>
<text x="350.0" y="336.0" text-anchor="middle" font-size="10" fill="#555">b=1.30</text>
<circle cx="350.0" cy="386.0" r="26" fill="#ffffff" stroke="#333333" stroke-width="1.6"/>
<text x="350.0" y="426.0" text-anchor="middle" font-size="10" fill="#555">b=-1.56</text>
<circle cx="350.0" cy="476.0" r="26" fill="#ffffff" stroke="#333333" stroke-width="1.6"/>
<text x="350.0" y="516.0" text-anchor="middle" font-size="10" fill="#555">b=-1.49</text>
<circle cx="350.0" cy="566.0" r="26" fill="#ffffff" stroke="#333333" stroke-width="1.6"/>
<text x="350.0" y="606.0" text-anchor="middle" font-size="10" fill="#555">b=0.91</text>
<circle cx="350.0" cy="656.0" r="26" fill="#ffffff" stroke="#333333" stroke-width="1.6"/>
<text x="350.0" y="696.0" text-anchor="middle" font-size="10" fill="#555">b=-1.43</text>
<circle cx="350.0" cy="746.0" r="26" fill="#ffffff" stroke="#333333" stroke-width="1.6"/>
<text x="350.0" y="786.0" text-anchor="middle" font-size="10" fill="#555">b=1.91</text>
<text x="350.0" y="82.0" text-anchor="middle" font-size="12" fill="#888">hidden (tanh)</text>
<circle cx="570.0" cy="341.0" r="26" fill="#fdece8" stroke="#333333" stroke-width="1.6"/>
<text x="570.0" y="345.0" text-anchor="middle" font-size="13" fill="#222">y1</text>
<text x="570.0" y="381.0" text-anchor="middle" font-size="10" fill="#555">b=-1.43</text>
<circle cx="570.0" cy="431.0" r="26" fill="#fdece8" stroke="#333333" stroke-width="1.6"/>
<text x="570.0" y="435.0" text-anchor="middle" font-size="13" fill="#222">y2</text>
<text x="570.0" y="471.0" text-anchor="middle" font-size="10" fill="#555">b=-2.90</text>
<circle cx="570.0" cy="521.0" r="26" fill="#fdece8" stroke="#333333" stroke-width="1.6"/>
<text x="570.0" y="525.0" text-anchor="middle" font-size="13" fill="#222">y3</text>
<text x="570.0" y="561.0" text-anchor="middle" font-size="10" fill="#555">b=-0.81</text>
<text x="570.0" y="82.0" text-anchor="middle" font-size="12" fill="#888">output (sigmoid)</text>
<line x1="130" y1="800" x2="164" y2="800" stroke="#2c7fb8" stroke-width="4"/>
<text x="172" y="804" font-size="12" fill="#555">positive weight</text>
<line x1="300" y1="800" x2="334" y2="800" stroke="#d7301f" stroke-width="4"/>
<text x="342" y="804" font-size="12" fill="#555">negative weight</text>
<text x="490" y="804" font-size="12" fill="#555">thickness &#8733; |weight|</text>
</svg>